<?xml version='1.0' encoding='utf-8'?>
<svg xmlns="http://www.w3.org/2000/svg" id="Camada_1" data-name="Camada 1" viewBox="0 0 500 500"><defs><style>.cls-1,.cls-8{fill:none;}.cls-2{fill:#92c7e1;}.cls-10,.cls-11,.cls-12,.cls-13,.cls-2,.cls-3,.cls-4,.cls-5,.cls-7,.cls-8,.cls-9{stroke:#000;}.cls-10,.cls-11,.cls-12,.cls-13,.cls-2,.cls-4,.cls-5,.cls-8{stroke-linecap:round;stroke-linejoin:round;}.cls-11,.cls-12,.cls-13,.cls-2,.cls-4{stroke-width:5.62px;}.cls-3{fill:#f9b233;}.cls-3,.cls-7,.cls-9{stroke-miterlimit:10;stroke-width:2.11px;}.cls-4{fill:#575756;}.cls-11,.cls-5,.cls-9{fill:#fff;}.cls-5{stroke-width:2.81px;}.cls-6{fill:#ff9791;}.cls-7{fill:#9fcfe3;}.cls-8{stroke-width:4.44px;}.cls-10,.cls-13{fill:#fffab8;}.cls-10{stroke-width:4.23px;}.cls-12{fill:#ffa9d8;}</style></defs><rect class="cls-1" y="-0.12" width="500" height="500"/><polygon class="cls-2" points="259.53 146.62 311.93 103.89 308.37 172.57 259.53 146.62"/><path class="cls-3" d="M324.05,387.79a4.34,4.34,0,0,1,1.76,1.58,1.79,1.79,0,0,1-.29,2.18c-.95.75-2.59,0-3.43.89s-.23,2.22-.94,3c-1.25,1.45-4.16-1-5.4.51-.35.41-.39,1-.67,1.47-.69,1.18-2.42,1.1-3.72.68-2.71-.88-5.36-3-5.54-5.85a6.26,6.26,0,0,1,3.16-5.42C313.46,384.11,319.73,385.3,324.05,387.79Z"/><path class="cls-3" d="M182.54,390.85a4.39,4.39,0,0,0-1.76,1.57,1.77,1.77,0,0,0,.28,2.18c.95.76,2.6,0,3.44.9s.23,2.21.93,3c1.25,1.46,4.16-.95,5.4.51a9.32,9.32,0,0,1,.67,1.47c.69,1.18,2.42,1.1,3.72.68,2.72-.88,5.36-3,5.54-5.84a6.25,6.25,0,0,0-3.16-5.42C193.12,387.17,186.85,388.35,182.54,390.85Z"/><path class="cls-4" d="M342.37,269.72s39.66-2.46,45.16,7.85-40.9,28.66-40.9,28.66"/><path class="cls-4" d="M119.83,297.64c0,99.26,93.7,104,173.14,96.77,64.88-5.91,80-70.36,59-121.22a63.47,63.47,0,0,1-4.89-25.51C348.76,165,272.75,137.24,233,139.2,123.77,144.6,119.83,250.78,119.83,297.64Z"/><path class="cls-5" d="M252.11,375.53c10.3,0,34-.75,46.48-4.27,18.27-5.14,28.76-9.36,36.2-22.89,9.6-17.43,10.12-42.76,1.36-66.09a73.41,73.41,0,0,1-4.72-27.21c.42-22.65-5.92-41.48-18.83-56-16.22-18.2-40.55-26.35-57.47-26.35-.9,0-1.77,0-2.62.07-71.07,3.86-79.29,73.83-79.29,126.13C173.22,350.29,189.29,375.53,252.11,375.53Z"/><path class="cls-4" d="M165.44,274.14s.56,39.72-10,44.72-26.67-42.22-26.67-42.22"/><path class="cls-3" d="M259.81,249.49a15.09,15.09,0,0,1,10.67.16,4.27,4.27,0,0,1,2.47,5c-.75,3-2.94,6.62-6.95,7.37-5.05,0-8-4.14-8.7-8.06A4,4,0,0,1,259.81,249.49Z"/><ellipse class="cls-6" cx="221.55" cy="270.29" rx="6" ry="8.43" transform="translate(-116.71 358.16) rotate(-65.22)"/><ellipse class="cls-6" cx="306.84" cy="269.46" rx="8.43" ry="6" transform="translate(-99.93 233.43) rotate(-36.23)"/><path class="cls-7" d="M272,296.52a5,5,0,0,0,4,.22c1.44-.74,2-2.54,2.07-4.15a15.35,15.35,0,0,0-.46-5,5,5,0,0,0-2.39-3.52,3.9,3.9,0,0,0-3,.05,11.48,11.48,0,0,0-2.63,1.56,15.59,15.59,0,0,0-3,2.53C263,292.54,268.24,295.07,272,296.52Z"/><path class="cls-7" d="M258.28,296.52a5.07,5.07,0,0,1-4.06.22c-1.44-.74-1.95-2.54-2.07-4.15a15.62,15.62,0,0,1,.46-5A5.06,5.06,0,0,1,255,284a3.92,3.92,0,0,1,3,.05,11.42,11.42,0,0,1,2.62,1.56,15.66,15.66,0,0,1,3,2.53C267.3,292.54,262.07,295.07,258.28,296.52Z"/><circle class="cls-7" cx="264.86" cy="290.42" r="2.92"/><path class="cls-8" d="M217,251a10.2,10.2,0,0,1,20.39,0"/><path class="cls-8" d="M286.54,251a10.2,10.2,0,0,1,20.39,0"/><circle class="cls-9" cx="289.29" cy="134.41" r="3.82"/><circle class="cls-9" cx="300.55" cy="144.61" r="3.82"/><path class="cls-10" d="M381.44,180.94a7.32,7.32,0,1,1-14.64,0c0-4,3.28-17.48,7.32-17.48S381.44,176.9,381.44,180.94Z"/><rect class="cls-11" x="368.78" y="186.56" width="10.68" height="40.82" rx="5.34"/><path class="cls-2" d="M410,230.9v26.93a12.33,12.33,0,0,1-12.31,12.28h-49.2a12.32,12.32,0,0,1-12.29-12.28V230.9a12.31,12.31,0,0,1,12.29-12.29h49.2A12.32,12.32,0,0,1,410,230.9Z"/><path class="cls-12" d="M410,230.9v6.25c-2.87-.83-5.69-1.87-7.79,0s-1.6,5-1.26,7.7,0,6.13-2.54,7.06c-2.72,1-5.34-2-5.87-4.82s.1-5.85-.84-8.57a7.88,7.88,0,0,0-15,.5c-.56,2.05-.27,4.23-.42,6.35s-.91,4.44-2.8,5.42c-2.66,1.39-6-.79-7.21-3.55s-1-5.88-1.41-8.87-1.66-6.23-4.46-7.33-6.11.48-8.6,2.33-5,4-8.1,4.3-5.58-1.37-7.47-3.84V230.9a12.31,12.31,0,0,1,12.29-12.29h49.2A12.32,12.32,0,0,1,410,230.9Z"/><rect class="cls-13" x="330.63" y="270.11" width="83.56" height="8.46"/><circle class="cls-9" cx="302.03" cy="126.78" r="3.82"/></svg>